<svg xmlns="http://www.w3.org/2000/svg" version="1.1" xmlns:xlink="http://www.w3.org/1999/xlink" xmlns:svgjs="http://svgjs.dev/svgjs" width="1920" height="1080" preserveAspectRatio="none" viewBox="0 0 1920 1080"><g mask="url(&quot;#SvgjsMask1019&quot;)" fill="none"><path d="M781.13 1111.2C955.56 1065.49 898.38 587.34 1275.68 586.16 1652.99 584.98 2009.84 832.67 2264.79 834.56" stroke="rgba(85, 85, 85, 0.58)" stroke-width="2"></path><path d="M393.13 1090.78C637.46 1055.1 706.68 520.96 1167.13 477.26 1627.58 433.56 1723.67 89.22 1941.13 77.66" stroke="rgba(85, 85, 85, 0.58)" stroke-width="2"></path><path d="M357.17 1228.7C612.06 1209.51 724.3 746.72 1236.24 706.55 1748.19 666.38 1858.25 187.54 2115.32 166.55" stroke="rgba(85, 85, 85, 0.58)" stroke-width="2"></path><path d="M627.46 1244.52C829.73 1238.17 948.3 956.51 1373.28 929.87 1798.26 903.23 1894.77 445.59 2119.1 422.27" stroke="rgba(85, 85, 85, 0.58)" stroke-width="2"></path><path d="M564.58 1108.21C854.76 969.61 885.6 46.97 1271.38 33.47 1657.15 19.97 1769.07 468.12 1978.17 487.07" stroke="rgba(85, 85, 85, 0.58)" stroke-width="2"></path></g><defs><mask id="SvgjsMask1019"><rect width="1920" height="1080" fill="#ffffff"></rect></mask></defs></svg>